#!OML:ASF F:\VICON\USERDATA\INSTALL\rory3\rory3.ASF
:FULLY-SPECIFIED
:DEGREES
533
root 2.82273 16.7314 -0.162007 15.2082 4.66495 11.3677
lowerback -6.33869 1.78086 0.0614785
upperback -2.46329 2.51705 -7.18529
thorax 1.33418 1.26043 -7.35746
lowerneck -2.72809 14.6992 5.09444
upperneck 48.2144 24.3126 -0.937724
head 20.3992 10.6531 2.8199
rclavicle 3.90612e-014 -5.84427e-014
rhumerus -36.8556 3.71042 -93.0645
rradius 42.3117
rwrist -38.7534
rhand -7.9978 -50.2275
rfingers 7.12502
rthumb 17.911 -79.4228
lclavicle 3.90612e-014 -5.84427e-014
lhumerus -28.3578 -19.9422 82.3231
lradius 41.488
lwrist 73.9906
lhand -38.702 -12.5642
lfingers 7.12502
lthumb -11.7163 17.0882
rfemur -51.7761 24.0699 -6.81087
rtibia 74.2733
rfoot 3.68093 10.5498
rtoes -42.0064
lfemur -32.8766 -6.88422 -36.1241
ltibia 38.5505
lfoot -16.5557 10.7112
ltoes 6.65802
534
root 2.82022 16.7318 -0.163925 15.2472 4.61333 11.2613
lowerback -6.33484 1.79615 0.12418
upperback -2.48145 2.53145 -7.14177
thorax 1.31572 1.26683 -7.3459
lowerneck -2.36178 14.628 5.25702
upperneck 47.7584 24.2644 -1.38942
head 20.1247 10.6567 2.51079
rclavicle 1.72446e-014 1.78906e-014
rhumerus -36.8635 3.7443 -93.0726
rradius 42.3805
rwrist -38.8768
rhand -8.17356 -50.1337
rfingers 7.12502
rthumb 17.7418 -79.3443
lclavicle 1.72446e-014 1.78906e-014
lhumerus -28.3078 -19.9354 82.3431
lradius 41.4491
lwrist 73.9198
lhand -38.751 -12.5692
lfingers 7.12502
lthumb -11.7636 17.0805
rfemur -51.8699 24.1346 -6.74094
rtibia 74.2504
rfoot 3.61 10.6135
rtoes -42.3451
lfemur -32.9639 -6.83627 -36.0004
ltibia 38.5329
lfoot -16.527 10.7045
ltoes 6.68964
535
root 2.82132 16.733 -0.162188 15.2536 4.57778 11.2619
lowerback -6.32339 1.8048 0.142584
upperback -2.49056 2.54108 -7.146
thorax 1.30207 1.27129 -7.3608
lowerneck -2.77175 14.7181 5.05411
upperneck 48.247 24.3364 -0.895826
head 20.4162 10.6564 2.85527
rclavicle 3.67752e-014 2.82274e-014
rhumerus -36.8129 3.67545 -93.0228
rradius 42.3065
rwrist -38.5828
rhand -7.65483 -50.7471
rfingers 7.12502
rthumb 18.2409 -79.9118
lclavicle 3.67752e-014 2.82274e-014
lhumerus -28.2927 -19.9511 82.3525
lradius 41.3942
lwrist 73.9477
lhand -38.4994 -13.1366
lfingers 7.12502
lthumb -11.5209 16.5268
rfemur -51.8587 24.1499 -6.748
rtibia 74.2487
rfoot 3.5095 10.6345
rtoes -42.3521
lfemur -33.0491 -6.79985 -36.0257
ltibia 38.672
lfoot -16.5464 10.7714
ltoes 6.51586
536
root 2.82291 16.7358 -0.160569 15.2529 4.59494 11.2906
lowerback -6.34577 1.80746 0.162429
upperback -2.48345 2.54558 -7.1759
thorax 1.32469 1.27414 -7.40364
lowerneck -2.18124 14.5809 5.37911
upperneck 47.5346 24.2078 -1.59712
head 19.9935 10.6532 2.35579
rclavicle 1.88845e-015 2.74323e-014
rhumerus -36.7702 3.57797 -92.9951
rradius 42.2765
rwrist -38.3104
rhand -7.22462 -51.5019
rfingers 7.12502
rthumb 18.6548 -80.6275
lclavicle 1.88845e-015 2.74323e-014
lhumerus -28.2914 -19.9643 82.3219
lradius 41.3745
lwrist 74.0247
lhand -38.2585 -13.5278
lfingers 7.12502
lthumb -11.2885 16.1484
rfemur -51.7955 24.1454 -6.76405
rtibia 74.2219
rfoot 3.45106 10.636
rtoes -42.3049
lfemur -33.0458 -6.79288 -36.0736
ltibia 38.6554
lfoot -16.4339 10.8126
ltoes 6.01874
537
root 2.82433 16.7351 -0.16043 15.2613 4.62469 11.3172
lowerback -6.50728 1.79748 0.166287
upperback -2.39704 2.54348 -7.1795
thorax 1.50462 1.27758 -7.40456
lowerneck -1.99855 14.5331 5.50027
upperneck 47.248 24.1632 -1.87149
head 19.8365 10.6493 2.17007
rclavicle -7.45443e-016 1.07344e-014
rhumerus -36.6908 3.56281 -92.9682
rradius 42.3865
rwrist -38.3315
rhand -7.35551 -51.375
rfingers 7.12502
rthumb 18.5289 -80.5125
lclavicle -7.45443e-016 1.07344e-014
lhumerus -28.1209 -19.9624 82.2789
lradius 41.3206
lwrist 74.0872
lhand -38.1767 -13.6716
lfingers 7.12502
lthumb -11.2097 16.0089
rfemur -51.7448 24.1032 -6.78986
rtibia 74.2172
rfoot 3.31808 10.6831
rtoes -42.6518
lfemur -33.0269 -6.80987 -36.1045
ltibia 38.6408
lfoot -16.3879 10.8084
ltoes 5.86462
538
root 2.82487 16.7267 -0.16221 15.2376 4.65581 11.3576
lowerback -6.61787 1.78977 0.166874
upperback -2.29019 2.54395 -7.18392
thorax 1.67768 1.28259 -7.40545
lowerneck -2.03348 14.503 5.45813
upperneck 47.1901 24.1085 -1.89007
head 19.7964 10.6205 2.15543
rclavicle 4.77083e-015 2.50469e-014
rhumerus -36.5566 3.52525 -92.9177
rradius 42.4218
rwrist -38.3452
rhand -7.7882 -50.0817
rfingers 7.12502
rthumb 18.1126 -79.2583
lclavicle 4.77083e-015 2.50469e-014
lhumerus -27.9118 -19.9798 82.2487
lradius 41.2641
lwrist 74.1268
lhand -38.1487 -13.4708
lfingers 7.12502
lthumb -11.1827 16.2112
rfemur -51.6548 24.0099 -6.80406
rtibia 74.2312
rfoot 3.1812 10.6721
rtoes -42.9206
lfemur -32.9527 -6.8032 -36.1744
ltibia 38.6537
lfoot -16.3933 10.9137
ltoes 5.06481
